<svg width="914" height="400" fill="none" xmlns="http://www.w3.org/2000/svg"><path d="M413.713 209.596c-.468-3.06-1.692-4.896-5.004-4.896-4.968 0-6.228 4.212-7.02 8.28-.612 3.024-1.008 6.084-1.008 9.18 0 3.6.648 7.164 5.076 7.164 6.408 0 6.768-8.28 7.308-12.96h-5.796l-.324 2.736h2.736c-.108 1.152-.252 2.268-.504 3.384-.324 1.692-.936 3.816-3.06 3.816-2.196 0-2.196-1.98-2.196-3.636 0-3.348.684-9.504 1.728-12.6.432-1.296 1.044-2.52 2.628-2.52 1.98 0 2.196 1.764 2.304 3.312l3.132-1.26Zm13.977 1.512c0-2.88-.684-6.408-4.284-6.408-3.708 0-5.184 3.708-5.904 6.768-.864 3.744-1.368 7.668-1.368 11.52 0 2.88.756 6.3 4.32 6.3 3.708 0 5.148-3.708 5.904-6.732.936-3.708 1.332-7.632 1.332-11.448Zm-3.168-.432c0 3.852-.54 7.704-1.296 11.52-.252 1.26-.828 4.284-2.484 4.284-1.476 0-1.512-2.124-1.512-3.168 0-3.852.54-7.668 1.296-11.412.252-1.26.828-4.32 2.484-4.32 1.476 0 1.512 2.016 1.512 3.096Zm18.068-5.688h-2.988c-1.044 3.528-2.088 7.02-3.06 10.548-.684 2.484-1.512 4.968-2.016 7.524 0-6.012-.288-12.06-.54-18.072h-3.132l1.62 24.012h2.52l7.596-24.012Zm10.917 0h-8.459L442.132 229h8.459l.325-2.736h-5.256l.972-8.172h4.68l.36-2.736h-4.68l.936-7.632h5.255l.324-2.736Zm3.651 0L454.242 229h3.168l1.368-11.196L461.73 229h3.24l-3.24-11.664c3.348-.648 4.428-4.68 4.428-7.38 0-3.384-1.332-4.968-4.788-4.968h-4.212Zm2.88 2.664h.468c2.088 0 2.484 1.008 2.484 2.916 0 1.404-.324 3.6-1.548 4.5-.684.504-1.548.576-2.376.576l.972-7.992ZM479.089 229l-2.124-24.012h-2.484l-8.1 24.012h3.096l1.44-4.68h4.716l.288 4.68h3.168Zm-7.416-7.164c.936-2.916 1.872-5.832 2.628-8.82.288-1.116.54-2.232.828-3.348-.036.9-.036 1.764-.036 2.664 0 3.168.18 6.336.36 9.504h-3.78Zm18.737 4.428h-5.184l2.592-21.276h-3.204L481.698 229h8.388l.324-2.736Zm11.091 0h-5.184l2.592-21.276h-3.204L492.789 229h8.388l.324-2.736Zm13.143-20.772c-1.08-.648-1.908-.792-3.168-.792-4.032 0-6.156 3.528-6.156 7.2 0 5.148 5.22 6.264 5.22 10.404 0 1.944-1.08 3.924-3.24 3.924-1.152 0-2.052-.54-2.916-1.26l-.396 3.204c.972.828 2.088 1.152 3.348 1.152 4.032 0 6.336-3.78 6.336-7.452 0-5.364-5.184-6.84-5.184-10.548 0-1.908 1.224-3.744 3.276-3.744.972 0 1.764.432 2.448 1.08l.432-3.168Z" fill="#B94947"/><path fill-rule="evenodd" clip-rule="evenodd" d="m414.267 209.912-4.137 1.665-.048-.686c-.055-.787-.134-1.517-.399-2.049a1.37 1.37 0 0 0-.493-.575c-.206-.13-.494-.223-.913-.223-.639 0-1.052.237-1.368.601-.337.39-.573.939-.786 1.577v.002c-1.02 3.025-1.702 9.121-1.702 12.44 0 .856.007 1.661.24 2.257.11.282.262.49.469.631.207.142.514.248.987.248.853 0 1.391-.407 1.78-1.036.407-.658.628-1.533.789-2.374l.002-.008.001-.008c.206-.912.339-1.828.44-2.774h-2.747l.443-3.736h6.801l-.064.558c-.04.343-.079.709-.119 1.092-.232 2.186-.524 4.936-1.361 7.255-.495 1.371-1.194 2.636-2.221 3.56-1.038.935-2.382 1.495-4.104 1.495-1.174 0-2.135-.236-2.909-.679-.777-.443-1.335-1.076-1.73-1.817-.779-1.459-.937-3.36-.937-5.168 0-3.137.401-6.231 1.018-9.277.396-2.033.922-4.192 2.017-5.845 1.123-1.693 2.832-2.838 5.493-2.838 1.754 0 3.037.49 3.936 1.461.879.951 1.323 2.294 1.562 3.86l.06.391Zm-12.578 3.068c-.612 3.024-1.008 6.084-1.008 9.18 0 3.6.648 7.164 5.076 7.164 5.927 0 6.68-7.082 7.187-11.849l.065-.611.056-.5h-5.796l-.324 2.736h2.736l-.049.5c-.103.977-.239 1.93-.455 2.884-.324 1.692-.936 3.816-3.06 3.816-2.196 0-2.196-1.98-2.196-3.636 0-3.348.684-9.504 1.728-12.6.432-1.296 1.044-2.52 2.628-2.52 1.76 0 2.126 1.394 2.262 2.79.017.175.03.35.042.522l3.132-1.26c-.468-3.06-1.692-4.896-5.004-4.896-4.968 0-6.228 4.212-7.02 8.28Zm15.326-1.624v-.002c.365-1.549.932-3.316 1.91-4.705.992-1.408 2.426-2.449 4.481-2.449.986 0 1.802.243 2.463.679.659.434 1.136 1.04 1.476 1.722.674 1.347.845 3.044.845 4.507 0 3.849-.399 7.815-1.347 11.57-.381 1.526-.948 3.283-1.921 4.666-.987 1.403-2.412 2.444-4.468 2.444-.974 0-1.786-.235-2.448-.658-.66-.422-1.143-1.012-1.492-1.68-.69-1.322-.88-2.994-.88-4.462 0-3.894.51-7.856 1.381-11.632Zm9.343 11.2c.936-3.708 1.332-7.632 1.332-11.448 0-2.88-.684-6.408-4.284-6.408-3.708 0-5.184 3.708-5.904 6.768-.864 3.744-1.368 7.668-1.368 11.52 0 2.88.756 6.3 4.32 6.3 3.708 0 5.148-3.708 5.904-6.732Zm-5.832-10.656c-.756 3.744-1.296 7.56-1.296 11.412 0 1.044.036 3.168 1.512 3.168 1.629 0 2.213-2.925 2.471-4.22l.013-.064c.756-3.816 1.296-7.668 1.296-11.52 0-1.08-.036-3.096-1.512-3.096-1.622 0-2.208 2.937-2.468 4.241l-.016.079Zm2.21 10.199-.011.051c-.128.643-.325 1.631-.676 2.468-.179.429-.386.783-.616 1.024-.224.233-.447.338-.691.338a.652.652 0 0 1-.502-.198c-.131-.134-.243-.346-.327-.635-.171-.583-.183-1.306-.183-1.835 0-3.806.534-7.587 1.286-11.313l.014-.07c.129-.644.326-1.632.674-2.47.18-.434.386-.793.618-1.037.224-.236.447-.342.688-.342.242 0 .394.077.51.19.128.125.238.323.321.598.169.558.181 1.259.181 1.808 0 3.807-.534 7.624-1.286 11.423Zm20.537-17.611L435.36 229.5h-3.353l-1.688-25.012h4.146l.02.479.083 1.938c.172 4.063.346 8.145.42 12.22.149-.522.3-1.041.451-1.557.213-.728.424-1.45.621-2.165.862-3.129 1.781-6.231 2.705-9.349l.357-1.208.106-.358h4.045Zm-8.259 16.443a38.795 38.795 0 0 0-.488 2.129c0-.729-.004-1.458-.012-2.188-.05-4.644-.249-9.303-.446-13.945l-.082-1.939h-3.132l1.62 24.012h2.52l7.596-24.012h-2.988l-.358 1.209c-.924 3.118-1.841 6.214-2.702 9.339-.201.732-.415 1.463-.63 2.196-.31 1.061-.621 2.126-.898 3.199Zm19.056-16.443-.442 3.736h-5.258l-.813 6.632h4.685l-.492 3.736h-4.674l-.854 7.172h5.256l-.442 3.736h-9.469l3.038-25.012h9.465Zm-8.41 21.776.972-8.172h4.68l.36-2.736h-4.68l.936-7.632h5.255l.324-2.736h-8.459L442.132 229h8.459l.325-2.736h-5.256Zm11.055-21.776h4.655c1.793 0 3.155.41 4.056 1.374.892.956 1.232 2.353 1.232 4.094 0 1.406-.279 3.167-1.008 4.677-.661 1.37-1.717 2.576-3.301 3.063l3.279 11.804h-4.283l-2.386-9.05-1.106 9.05h-4.175l3.037-25.012Zm2.063 13.316L461.73 229h3.24l-3.24-11.664c.167-.032.329-.073.485-.122 2.968-.925 3.943-4.693 3.943-7.258 0-3.384-1.332-4.968-4.788-4.968h-4.212L454.242 229h3.168l1.368-11.196Zm2.368-3.139c.479-.352.825-.998 1.048-1.792a8.94 8.94 0 0 0 .296-2.305c0-.953-.107-1.53-.362-1.877-.223-.304-.647-.539-1.622-.539h-.025l-.848 6.976c.584-.039 1.099-.158 1.513-.463Zm-1.575.967a9.455 9.455 0 0 1-.505.012l.972-7.992h.468c2.088 0 2.484 1.008 2.484 2.916 0 1.404-.324 3.6-1.548 4.5-.546.402-1.206.529-1.871.564Zm20.064 13.868h-4.184l-.288-4.68h-3.877l-1.44 4.68h-4.161l8.437-25.012h3.301l2.212 25.012Zm-8.718-5.18h4.716l.288 4.68h3.168l-2.124-24.012h-2.484l-8.1 24.012h3.096l1.44-4.68Zm20.055 1.444-.442 3.736h-9.397l3.038-25.012h4.211l-2.592 21.276h5.182Zm-5.746.5h5.184l-.324 2.736h-8.388l2.916-24.012h3.204l-2.592 21.276Zm16.838-.5-.443 3.736h-9.397l3.038-25.012h4.211l-2.592 21.276h5.183Zm-5.747.5h5.184l-.324 2.736h-8.388l2.916-24.012h3.204l-2.592 21.276Zm18.867-21.031-.608 4.461-.708-.671c-.623-.59-1.298-.943-2.104-.943-1.681 0-2.776 1.507-2.776 3.244 0 .8.276 1.493.728 2.185.376.575.852 1.12 1.374 1.718l.369.424c1.311 1.521 2.713 3.349 2.713 6.221 0 1.934-.605 3.907-1.76 5.408-1.162 1.511-2.886 2.544-5.076 2.544-1.354 0-2.593-.351-3.672-1.271l-.205-.175.541-4.381.704.587c.832.693 1.618 1.144 2.596 1.144.906 0 1.571-.406 2.026-1.028.466-.636.714-1.508.714-2.396 0-1.758-1.039-2.902-2.301-4.291l-.18-.197c-1.313-1.45-2.739-3.139-2.739-5.916 0-1.925.556-3.839 1.67-5.282 1.124-1.457 2.806-2.418 4.986-2.418 1.321 0 2.245.156 3.425.863l.283.17Zm-43.511 16.603h3.78l-.029-.5c-.17-3.001-.331-6.002-.331-9.004v-.427c.001-.749.006-1.48.036-2.237-.144.558-.279 1.116-.414 1.674l-.122.503c-.095.39-.191.781-.292 1.171-.713 2.817-1.586 5.571-2.468 8.32l-.16.5Zm.685-.5h2.566c-.141-2.492-.277-4.995-.318-7.5-.668 2.539-1.455 5.027-2.248 7.5Zm32.485 3.993c.729.532 1.507.899 2.457.899 2.16 0 3.24-1.98 3.24-3.924 0-1.957-1.167-3.239-2.397-4.59-1.372-1.506-2.823-3.1-2.823-5.814 0-3.672 2.124-7.2 6.156-7.2 1.26 0 2.088.144 3.168.792l-.432 3.168a4.9 4.9 0 0 0-.453-.382c-.577-.43-1.23-.698-1.995-.698-2.052 0-3.276 1.836-3.276 3.744 0 1.684 1.068 2.907 2.235 4.243 1.403 1.607 2.949 3.376 2.949 6.305 0 3.672-2.304 7.452-6.336 7.452-1.26 0-2.376-.324-3.348-1.152l.396-3.204c.152.127.304.247.459.361Z" fill="#B94947"/><path d="M407.408 182.043c-1.459.794-3.083 1.191-4.873 1.191-2.071 0-3.747-.644-5.03-1.933-1.282-1.289-1.923-2.995-1.923-5.117 0-2.168.7-3.946 2.099-5.332 1.406-1.394 3.19-2.09 5.352-2.09 1.556 0 2.864.228 3.926.683v2.393c-1.075-.716-2.354-1.074-3.838-1.074-1.491 0-2.715.491-3.672 1.474-.951.983-1.426 2.256-1.426 3.819 0 1.608.41 2.874 1.231 3.798.82.918 1.933 1.377 3.339 1.377.964 0 1.797-.185 2.5-.556v-3.33h-2.949v-1.953h5.264v6.65Zm3.506-11.143c-.371 0-.69-.12-.957-.361a1.198 1.198 0 0 1-.391-.918c0-.371.131-.68.391-.928.267-.247.586-.371.957-.371.384 0 .71.124.977.371.267.248.4.557.4.928 0 .352-.133.654-.4.908a1.383 1.383 0 0 1-.977.371Zm1.123 12.1h-2.266v-10h2.266v10Zm7.842-.107c-.442.221-1.025.332-1.748.332-1.94 0-2.91-.931-2.91-2.793v-5.655h-1.67V173h1.67v-2.314l2.266-.645V173h2.392v1.777h-2.392v5c0 .593.107 1.016.322 1.27.215.254.573.381 1.074.381.384 0 .716-.111.996-.332v1.797Zm13.057.107h-2.334v-6.074h-6.591V183h-2.325v-14.004h2.325v5.889h6.591v-5.889h2.334V183Zm11.524 0h-2.265v-1.582h-.04c-.657 1.211-1.679 1.816-3.066 1.816-2.363 0-3.545-1.419-3.545-4.257V173h2.266v5.742c0 1.797.693 2.696 2.08 2.696.67 0 1.221-.248 1.65-.743.436-.494.655-1.142.655-1.943V173h2.265v10Zm4.864-1.445h-.039V183h-2.266v-14.805h2.266v6.563h.039c.775-1.328 1.907-1.992 3.398-1.992 1.263 0 2.25.449 2.959 1.347.716.892 1.074 2.09 1.074 3.594 0 1.673-.4 3.014-1.201 4.023-.8 1.003-1.894 1.504-3.281 1.504-1.302 0-2.285-.56-2.949-1.679Zm-.059-3.975v1.24c0 .729.231 1.348.694 1.856.468.508 1.061.762 1.777.762.84 0 1.497-.326 1.973-.977.481-.658.722-1.572.722-2.744 0-.983-.224-1.752-.674-2.305-.442-.56-1.045-.84-1.806-.84-.808 0-1.459.287-1.953.86-.489.573-.733 1.289-.733 2.148Zm26.271 5.42h-2.549l-1.26-3.564h-5.508L465.008 183h-2.539l5.244-14.004h2.617L475.536 183Zm-4.424-5.459-1.944-5.586a6.696 6.696 0 0 1-.185-.879h-.039a5.716 5.716 0 0 1-.196.879l-1.923 5.586h4.287Zm12.861 5c-.8.462-1.748.693-2.841.693-1.485 0-2.683-.462-3.594-1.386-.912-.931-1.367-2.136-1.367-3.614 0-1.647.488-2.968 1.465-3.964.983-1.003 2.294-1.504 3.935-1.504.912 0 1.716.159 2.412.478v2.11c-.696-.521-1.439-.782-2.226-.782-.957 0-1.742.326-2.354.977-.612.644-.918 1.491-.918 2.539 0 1.035.287 1.852.86 2.451.579.599 1.354.899 2.324.899.814 0 1.582-.29 2.304-.87v1.973Zm7.13.352c-.443.221-1.026.332-1.748.332-1.94 0-2.91-.931-2.91-2.793v-5.655h-1.67V173h1.67v-2.314l2.265-.645V173h2.393v1.777h-2.393v5c0 .593.108 1.016.322 1.27.215.254.573.381 1.075.381.384 0 .716-.111.996-.332v1.797Zm2.695-11.993c-.371 0-.69-.12-.957-.361a1.197 1.197 0 0 1-.39-.918c0-.371.13-.68.39-.928.267-.247.586-.371.957-.371.385 0 .71.124.977.371.267.248.4.557.4.928 0 .352-.133.654-.4.908a1.381 1.381 0 0 1-.977.371Zm1.123 12.1h-2.265v-10h2.265v10Zm7.003.234c-1.543 0-2.777-.465-3.701-1.396-.918-.938-1.377-2.178-1.377-3.721 0-1.679.478-2.991 1.435-3.935.964-.944 2.259-1.416 3.887-1.416 1.562 0 2.78.459 3.652 1.377.873.918 1.309 2.19 1.309 3.818 0 1.595-.472 2.874-1.416 3.838-.938.957-2.201 1.435-3.789 1.435Zm.107-8.662c-.885 0-1.585.31-2.099.928-.515.618-.772 1.471-.772 2.559 0 1.048.261 1.875.781 2.48.521.599 1.218.899 2.09.899.892 0 1.576-.297 2.051-.889.482-.593.723-1.436.723-2.529 0-1.101-.241-1.95-.723-2.549-.475-.599-1.159-.899-2.051-.899ZM517.95 183h-2.266v-5.635c0-1.868-.661-2.803-1.982-2.803-.691 0-1.26.261-1.709.782-.45.514-.674 1.165-.674 1.953V183h-2.276v-10h2.276v1.66h.039c.748-1.263 1.829-1.894 3.242-1.894 1.087 0 1.917.354 2.49 1.064.573.703.86 1.722.86 3.057V183Z" fill="silver"/></svg>